<svg width="36" height="22" viewBox="0 0 36 22" fill="none" xmlns="http://www.w3.org/2000/svg">
<path d="M13.4629 2.30932C15.1097 0.83421 17.2691 0 19.5598 0C21.8291 0 23.9699 0.818644 25.6138 2.27114L25.6589 2.31132C26.2315 2.82463 26.2662 3.69282 25.7342 4.24682C25.722 4.25956 25.7095 4.27209 25.6968 4.28439L22.5375 7.31966L20.9652 5.73911L23.4258 3.37834C22.3233 2.62659 21.0028 2.20732 19.6113 2.19722L19.5598 2.19703C18.1509 2.19703 16.813 2.61645 15.6979 3.37547L20.787 8.18196V22H18.4221V10.0485H18.4238V9.09226L13.4255 4.28699C12.8711 3.75223 12.87 2.88173 13.4235 2.34602L13.4244 2.34514L13.4318 2.33802L13.4448 2.32575L13.4629 2.30932Z" fill="black"/>
<path d="M3.58504 19.0059C2.91416 19.0059 2.25166 18.919 1.59755 18.745C0.943432 18.5711 0.410917 18.335 0 18.0369L0.742167 16.3845C1.17824 16.6579 1.63948 16.8691 2.12587 17.0181C2.62065 17.1589 3.11542 17.2293 3.6102 17.2293C4.11336 17.2293 4.49912 17.1631 4.76748 17.0306C5.03583 16.8898 5.17001 16.6951 5.17001 16.4467C5.17001 16.223 5.04841 16.0408 4.80522 15.9C4.56202 15.7509 4.10498 15.606 3.43409 15.4652C2.5871 15.2995 1.92879 15.0966 1.45918 14.8564C0.989556 14.608 0.658306 14.3181 0.465427 13.9868C0.280933 13.6555 0.188686 13.2538 0.188686 12.7817C0.188686 12.2433 0.343829 11.7588 0.654113 11.3281C0.964397 10.8892 1.40047 10.5496 1.96234 10.3094C2.52421 10.0609 3.16574 9.9367 3.88694 9.9367C4.53267 9.9367 5.15743 10.0278 5.76123 10.21C6.37341 10.3839 6.85142 10.6159 7.19524 10.9057L6.46566 12.5581C6.07151 12.2848 5.6564 12.0777 5.22033 11.9369C4.78425 11.7878 4.34817 11.7133 3.9121 11.7133C3.48441 11.7133 3.14058 11.7961 2.88061 11.9617C2.62065 12.1191 2.49066 12.3344 2.49066 12.6078C2.49066 12.7569 2.53678 12.8811 2.62903 12.9805C2.72128 13.0799 2.89319 13.1793 3.14477 13.2786C3.39636 13.3697 3.77373 13.4691 4.27689 13.5768C5.09034 13.7507 5.72768 13.9619 6.18892 14.2104C6.65854 14.4506 6.98979 14.7363 7.18266 15.0676C7.37554 15.3907 7.47198 15.7799 7.47198 16.2355C7.47198 17.0968 7.13235 17.776 6.45308 18.2729C5.77381 18.7616 4.81779 19.0059 3.58504 19.0059Z" fill="black"/>
<path d="M16.8041 10.0485V18.8941H15.0556L10.9926 13.875V18.8941H8.79122V10.0485H10.5146L14.5776 15.0428V10.0485H16.8041Z" fill="black"/>
<path d="M22.4022 10.0485H28.654V11.8748H24.7293V13.4898H28.4024V15.3037H24.7293V18.8941H22.4022V10.0485Z" fill="black"/>
<path d="M36 10.0485H29.7482V18.8941H32.0753V15.3037H35.7484V13.4898H32.0753V11.8748H36V10.0485Z" fill="black"/>
</svg>
