<svg width="44" height="44" viewBox="0 0 44 44" fill="none" xmlns="http://www.w3.org/2000/svg">
<path d="M22.0431 19.2186C15.1681 19.2186 5.54308 29.804 5.54308 36.5167C5.54308 39.5288 7.77746 41.25 11.6446 41.25C15.8556 41.25 18.6056 39.0985 22.0431 39.0985C25.3946 39.0985 28.1446 41.25 32.3556 41.25C36.2228 41.25 38.5431 39.5288 38.5431 36.5167C38.5431 29.804 28.8321 19.2186 22.0431 19.2186ZM9.32433 18.1859C8.46496 15.1738 5.71496 13.2805 3.22277 13.8829C0.730582 14.4853 -0.644418 17.3253 0.300895 20.3374C1.16027 23.3495 3.91027 25.2428 6.40246 24.6404C8.89464 24.038 10.2696 21.198 9.32433 18.1859ZM16.629 16.3786C19.2931 15.6902 20.5821 12.0756 19.6368 8.37507C18.6056 4.58842 15.5978 2.17874 12.9337 2.86722C10.2696 3.5557 8.98058 7.17023 9.92589 10.8708C10.9571 14.6574 13.965 17.0671 16.629 16.3786ZM40.7775 13.8829C38.2853 13.2805 35.5353 15.1738 34.6759 18.1859C33.7306 21.198 35.1056 24.038 37.5978 24.6404C40.09 25.2428 42.84 23.3495 43.6993 20.3374C44.6446 17.3253 43.2696 14.4853 40.7775 13.8829ZM27.3712 16.3786C30.0353 17.0671 33.0431 14.6574 34.0743 10.8708C35.0196 7.17023 33.7306 3.5557 31.0665 2.86722C28.4025 2.17874 25.3946 4.58842 24.3634 8.37507C23.4181 12.0756 24.7071 15.6902 27.3712 16.3786Z" fill="black"/>
</svg>
