<svg width="8" height="12" viewBox="0 0 8 12" fill="none" xmlns="http://www.w3.org/2000/svg">
<path d="M7.47953 0.849499C7.47953 1.0903 7.39766 1.30435 7.23392 1.46488L2.62183 5.98662L7.23392 10.5351C7.58869 10.8562 7.58869 11.4181 7.23392 11.7391C6.90643 12.087 6.33333 12.087 6.00585 11.7391L0.766082 6.60201C0.411306 6.28094 0.411306 5.71906 0.766082 5.39799L6.00585 0.26087C6.33333 -0.086956 6.90643 -0.086956 7.23392 0.26087C7.39766 0.421405 7.47953 0.635452 7.47953 0.849499Z" fill="white"/>
<path d="M7.47953 0.849499C7.47953 1.0903 7.39766 1.30435 7.23392 1.46488L2.62183 5.98662L7.23392 10.5351C7.58869 10.8562 7.58869 11.4181 7.23392 11.7391C6.90643 12.087 6.33333 12.087 6.00585 11.7391L0.766082 6.60201C0.411306 6.28094 0.411306 5.71906 0.766082 5.39799L6.00585 0.26087C6.33333 -0.086956 6.90643 -0.086956 7.23392 0.26087C7.39766 0.421405 7.47953 0.635452 7.47953 0.849499Z" fill="black" fill-opacity="0.6"/>
</svg>
