<svg width="20" height="20" viewBox="0 0 20 20" fill="none" xmlns="http://www.w3.org/2000/svg">
<path d="M12 9C13.0938 9 14 8.125 14 7C14 5.90625 13.0938 5 12 5C10.875 5 10 5.90625 10 7C10 8.125 10.875 9 12 9ZM7 10C5.875 10 5 10.9062 5 12C5 13.125 5.875 14 7 14H13C14.0938 14 15 13.125 15 12C15 10.9062 14.0938 10 13 10H7ZM14 3C14.5312 3 15 2.5625 15 2C15 1.46875 14.5312 1 14 1C13.4375 1 13 1.46875 13 2C13 2.5625 13.4375 3 14 3ZM8.5 4C9.3125 4 10 3.34375 10 2.5C10 1.6875 9.3125 1 8.5 1C7.65625 1 7 1.6875 7 2.5C7 3.34375 7.65625 4 8.5 4ZM15 7C15 7.875 14.5938 8.65625 14.0312 9.21875C15.1562 9.625 16 10.7188 16 12C16 13.6875 14.6562 15 13 15H7C5.3125 15 4 13.6875 4 12C4 10.3438 5.3125 9 7 9H9.75C9.28125 8.46875 9 7.78125 9 7H5C3.3125 7 2 8.34375 2 10V14C2 15.6875 3.3125 17 5 17H15C16.6562 17 18 15.6875 18 14V10C18 8.34375 16.6562 7 15 7Z" fill="#94A9E8"/>
</svg>
