<svg width="20" height="20" viewBox="0 0 20 20" fill="none" xmlns="http://www.w3.org/2000/svg">
<path d="M17.75 4.25L15.75 2.25C15.4375 1.9375 14.9688 1.9375 14.6875 2.25C14.375 2.53125 14.375 3 14.6875 3.28125L15.1875 3.75L14 4.96875L12.25 3.25C11.9688 2.9375 11.5 2.9375 11.2188 3.25C10.9375 3.5 10.9375 3.90625 11.125 4.1875L15.8125 8.84375C15.9375 8.96875 16.0938 9 16.25 9C16.4375 9 16.625 8.9375 16.75 8.78125C17.0625 8.5 17.0625 8.03125 16.75 7.75L15.0312 6L16.25 4.8125L16.7188 5.28125C16.8438 5.4375 17.0312 5.5 17.25 5.5C17.4375 5.5 17.625 5.4375 17.75 5.28125C18.0625 5 18.0625 4.53125 17.75 4.25ZM8.5 6.84375L10.3438 8.65625C10.5312 8.84375 10.5312 9.1875 10.3438 9.375C10.25 9.46875 10.125 9.5 10 9.5C9.84375 9.5 9.71875 9.46875 9.625 9.375L7.8125 7.53125L6.5 8.84375L8.34375 10.6562C8.53125 10.8438 8.53125 11.1875 8.34375 11.375C8.25 11.4688 8.125 11.5 8 11.5C7.84375 11.5 7.71875 11.4688 7.625 11.375L5.8125 9.53125L4.5625 10.7812C4.1875 11.1562 4 11.6562 4 12.1875V14.9688L2.21875 16.75C1.90625 17.0312 1.90625 17.5 2.21875 17.7812C2.34375 17.9375 2.53125 18 2.75 18C2.9375 18 3.125 17.9375 3.25 17.7812L5.03125 16H7.8125C8.34375 16 8.84375 15.8125 9.21875 15.4375L15.0938 9.5625L10.4375 4.90625L8.5 6.84375Z" fill="#94A9E8"/>
</svg>
